<svg xmlns="http://www.w3.org/2000/svg" viewBox="0 0 1200 1370" width="1200" height="1370"><title>Wireframe 2: Recepto puslapis (kompiuteris)</title><rect width="1200" height="1370" fill="#fafafa"/><rect x="0" y="0" width="1200" height="64" rx="0" fill="#d0d0d0" stroke="#555" stroke-width="1.5"/><text x="8" y="14" font-family="Arial, Helvetica, sans-serif" font-size="11" font-weight="bold" fill="#888" text-anchor="start">HEADER</text><text x="48" y="40" font-family="Arial, Helvetica, sans-serif" font-size="20" font-weight="bold" fill="#222" text-anchor="start">⌘ Receptų portalas</text><text x="600" y="38" font-family="Arial, Helvetica, sans-serif" font-size="15" font-weight="bold" fill="#222" text-anchor="start">Pradžia</text><text x="690" y="38" font-family="Arial, Helvetica, sans-serif" font-size="15" font-weight="bold" fill="#222" text-anchor="start">Receptai</text><text x="790" y="38" font-family="Arial, Helvetica, sans-serif" font-size="15" font-weight="bold" fill="#222" text-anchor="start">Mano skydelis</text><text x="930" y="38" font-family="Arial, Helvetica, sans-serif" font-size="15" font-weight="bold" fill="#222" text-anchor="start">Atsijungti</text><text x="8" y="80" font-family="Arial, Helvetica, sans-serif" font-size="11" font-weight="bold" fill="#888" text-anchor="start">CONTENT</text><text x="96" y="100" font-family="Arial, Helvetica, sans-serif" font-size="13" font-weight="normal" fill="#666" text-anchor="start">Pradžia / Kategorija / Recepto pavadinimas</text><rect x="96" y="124" width="520" height="390" rx="0" fill="#e4e4e4" stroke="#888" stroke-width="1.5"/><line x1="96" y1="124" x2="616" y2="514" stroke="#aaa" stroke-width="1"/><line x1="616" y1="124" x2="96" y2="514" stroke="#aaa" stroke-width="1"/><text x="356.0" y="324.0" font-family="Arial, Helvetica, sans-serif" font-size="13" font-weight="normal" fill="#666" text-anchor="middle">Recepto nuotrauka</text><rect x="660" y="130" width="100" height="24" rx="12" fill="#ddd" stroke="#888" stroke-width="1"/><text x="710" y="147" font-family="Arial, Helvetica, sans-serif" font-size="12" font-weight="bold" fill="#222" text-anchor="middle">Sudėtingas</text><text x="660" y="200" font-family="Arial, Helvetica, sans-serif" font-size="36" font-weight="bold" fill="#222" text-anchor="start">Recepto pavadinimas</text><text x="660" y="240" font-family="Arial, Helvetica, sans-serif" font-size="18" font-weight="normal" fill="#555" text-anchor="start">★★★★½  4.5 (2)</text><text x="660" y="284" font-family="Arial, Helvetica, sans-serif" font-size="15" font-weight="normal" fill="#555" text-anchor="start">2 val.     ·     6 porc.     ·     jonas</text><text x="660" y="316" font-family="Arial, Helvetica, sans-serif" font-size="13" font-weight="normal" fill="#888" text-anchor="start">Paskelbta 2026-10-09</text><rect x="660" y="340" width="140" height="40" rx="20.0" fill="#fff" stroke="#555" stroke-width="1.5"/><text x="730.0" y="365.0" font-family="Arial, Helvetica, sans-serif" font-size="14" font-weight="bold" fill="#333" text-anchor="middle">Redaguoti</text><rect x="816" y="340" width="120" height="40" rx="20.0" fill="#fff" stroke="#555" stroke-width="1.5"/><text x="876.0" y="365.0" font-family="Arial, Helvetica, sans-serif" font-size="14" font-weight="bold" fill="#333" text-anchor="middle">Šalinti</text><rect x="96" y="548" width="330" height="220" rx="10" fill="#fff" stroke="#777" stroke-width="1.5"/><text x="116" y="584" font-family="Arial, Helvetica, sans-serif" font-size="20" font-weight="bold" fill="#222" text-anchor="start">Ingredientai</text><text x="122" y="616" font-family="Arial, Helvetica, sans-serif" font-size="16" font-weight="normal" fill="#222" text-anchor="start">•</text><rect x="140" y="606" width="220" height="6" rx="3" fill="#ccc" stroke="none" stroke-width="0"/><text x="122" y="644" font-family="Arial, Helvetica, sans-serif" font-size="16" font-weight="normal" fill="#222" text-anchor="start">•</text><rect x="140" y="634" width="190" height="6" rx="3" fill="#ccc" stroke="none" stroke-width="0"/><text x="122" y="672" font-family="Arial, Helvetica, sans-serif" font-size="16" font-weight="normal" fill="#222" text-anchor="start">•</text><rect x="140" y="662" width="160" height="6" rx="3" fill="#ccc" stroke="none" stroke-width="0"/><text x="122" y="700" font-family="Arial, Helvetica, sans-serif" font-size="16" font-weight="normal" fill="#222" text-anchor="start">•</text><rect x="140" y="690" width="220" height="6" rx="3" fill="#ccc" stroke="none" stroke-width="0"/><text x="122" y="728" font-family="Arial, Helvetica, sans-serif" font-size="16" font-weight="normal" fill="#222" text-anchor="start">•</text><rect x="140" y="718" width="190" height="6" rx="3" fill="#ccc" stroke="none" stroke-width="0"/><rect x="446" y="548" width="658" height="220" rx="10" fill="#fff" stroke="#777" stroke-width="1.5"/><text x="466" y="584" font-family="Arial, Helvetica, sans-serif" font-size="20" font-weight="bold" fill="#222" text-anchor="start">Gaminimo eiga</text><rect x="466" y="606" width="600" height="6" rx="3" fill="#ccc" stroke="none" stroke-width="0"/><rect x="466" y="624" width="600" height="6" rx="3" fill="#ccc" stroke="none" stroke-width="0"/><rect x="466" y="642" width="600" height="6" rx="3" fill="#ccc" stroke="none" stroke-width="0"/><rect x="466" y="660" width="600" height="6" rx="3" fill="#ccc" stroke="none" stroke-width="0"/><rect x="466" y="678" width="600" height="6" rx="3" fill="#ccc" stroke="none" stroke-width="0"/><rect x="466" y="696" width="600" height="6" rx="3" fill="#ccc" stroke="none" stroke-width="0"/><rect x="466" y="714" width="360.0" height="6" rx="3" fill="#ccc" stroke="none" stroke-width="0"/><text x="96" y="830" font-family="Arial, Helvetica, sans-serif" font-size="26" font-weight="bold" fill="#222" text-anchor="start">Atsiliepimai (2)</text><rect x="96" y="850" width="1008" height="200" rx="10" fill="#fff" stroke="#777" stroke-width="1.5"/><text x="116" y="884" font-family="Arial, Helvetica, sans-serif" font-size="17" font-weight="bold" fill="#222" text-anchor="start">Palikite atsiliepimą</text><text x="116" y="918" font-family="Arial, Helvetica, sans-serif" font-size="13" font-weight="bold" fill="#222" text-anchor="start">Jūsų įvertinimas</text><text x="116" y="946" font-family="Arial, Helvetica, sans-serif" font-size="24" font-weight="normal" fill="#666" text-anchor="start">☆ ☆ ☆ ☆ ☆</text><rect x="380" y="900" width="700" height="80" rx="6" fill="#fff" stroke="#777" stroke-width="1.5"/><text x="392" y="922" font-family="Arial, Helvetica, sans-serif" font-size="13" font-weight="normal" fill="#999" text-anchor="start">Komentaras</text><rect x="960" y="996" width="120" height="38" rx="19.0" fill="#555" stroke="#555" stroke-width="1.5"/><text x="1020.0" y="1020.0" font-family="Arial, Helvetica, sans-serif" font-size="14" font-weight="bold" fill="#fff" text-anchor="middle">Paskelbti</text><rect x="96" y="1076" width="1008" height="104" rx="10" fill="#fff" stroke="#777" stroke-width="1.5"/><rect x="116" y="1094" width="46" height="46" rx="23" fill="#ccc" stroke="#777" stroke-width="1.5"/><text x="139" y="1124" font-family="Arial, Helvetica, sans-serif" font-size="18" font-weight="bold" fill="#222" text-anchor="middle">J</text><text x="180" y="1110" font-family="Arial, Helvetica, sans-serif" font-size="14" font-weight="bold" fill="#222" text-anchor="start">vardas   2026-10-09</text><text x="180" y="1134" font-family="Arial, Helvetica, sans-serif" font-size="14" font-weight="normal" fill="#555" text-anchor="start">★★★★☆</text><rect x="180" y="1148" width="560" height="6" rx="3" fill="#ccc" stroke="none" stroke-width="0"/><rect x="180" y="1162" width="336.0" height="6" rx="3" fill="#ccc" stroke="none" stroke-width="0"/><rect x="920" y="1130" width="90" height="30" rx="15.0" fill="#fff" stroke="#555" stroke-width="1.5"/><text x="965.0" y="1150.0" font-family="Arial, Helvetica, sans-serif" font-size="14" font-weight="bold" fill="#333" text-anchor="middle">Redaguoti</text><rect x="1016" y="1130" width="74" height="30" rx="15.0" fill="#fff" stroke="#555" stroke-width="1.5"/><text x="1053.0" y="1150.0" font-family="Arial, Helvetica, sans-serif" font-size="14" font-weight="bold" fill="#333" text-anchor="middle">Šalinti</text><rect x="96" y="1196" width="1008" height="104" rx="10" fill="#fff" stroke="#777" stroke-width="1.5"/><rect x="116" y="1214" width="46" height="46" rx="23" fill="#ccc" stroke="#777" stroke-width="1.5"/><text x="139" y="1244" font-family="Arial, Helvetica, sans-serif" font-size="18" font-weight="bold" fill="#222" text-anchor="middle">J</text><text x="180" y="1230" font-family="Arial, Helvetica, sans-serif" font-size="14" font-weight="bold" fill="#222" text-anchor="start">vardas   2026-10-09</text><text x="180" y="1254" font-family="Arial, Helvetica, sans-serif" font-size="14" font-weight="normal" fill="#555" text-anchor="start">★★★★☆</text><rect x="180" y="1268" width="560" height="6" rx="3" fill="#ccc" stroke="none" stroke-width="0"/><rect x="180" y="1282" width="336.0" height="6" rx="3" fill="#ccc" stroke="none" stroke-width="0"/><rect x="920" y="1250" width="90" height="30" rx="15.0" fill="#fff" stroke="#555" stroke-width="1.5"/><text x="965.0" y="1270.0" font-family="Arial, Helvetica, sans-serif" font-size="14" font-weight="bold" fill="#333" text-anchor="middle">Redaguoti</text><rect x="1016" y="1250" width="74" height="30" rx="15.0" fill="#fff" stroke="#555" stroke-width="1.5"/><text x="1053.0" y="1270.0" font-family="Arial, Helvetica, sans-serif" font-size="14" font-weight="bold" fill="#333" text-anchor="middle">Šalinti</text><rect x="0" y="1320" width="1200" height="50" rx="0" fill="#bdbdbd" stroke="#555" stroke-width="1.5"/><text x="8" y="1334" font-family="Arial, Helvetica, sans-serif" font-size="11" font-weight="bold" fill="#888" text-anchor="start">FOOTER</text><text x="600" y="1352" font-family="Arial, Helvetica, sans-serif" font-size="13" font-weight="normal" fill="#222" text-anchor="middle">© Receptų portalas</text></svg>